<mxfile host="app.diagrams.net" modified="2024-06-17T20:33:30.479Z" agent="Mozilla/5.0 (Windows NT 10.0; Win64; x64) AppleWebKit/537.36 (KHTML, like Gecko) Chrome/123.0.0.0 Safari/537.36 OPR/109.0.0.0" etag="pSBTKA6DHOrWv0I7kaJJ" version="24.5.4" type="github">
  <diagram name="Page-1" id="e7e014a7-5840-1c2e-5031-d8a46d1fe8dd">
    <mxGraphModel dx="1119" dy="656" grid="1" gridSize="10" guides="1" tooltips="1" connect="1" arrows="1" fold="1" page="1" pageScale="1" pageWidth="1169" pageHeight="826" background="none" math="0" shadow="0">
      <root>
        <mxCell id="0" />
        <mxCell id="1" parent="0" />
        <mxCell id="I5ZRGwqgSK4CXEPLcoX2-49" style="edgeStyle=orthogonalEdgeStyle;rounded=0;orthogonalLoop=1;jettySize=auto;html=1;" edge="1" parent="1" source="I5ZRGwqgSK4CXEPLcoX2-42" target="I5ZRGwqgSK4CXEPLcoX2-46">
          <mxGeometry relative="1" as="geometry">
            <Array as="points">
              <mxPoint x="200" y="260" />
              <mxPoint x="200" y="260" />
            </Array>
          </mxGeometry>
        </mxCell>
        <mxCell id="I5ZRGwqgSK4CXEPLcoX2-42" value="User" style="shape=umlActor;verticalLabelPosition=bottom;verticalAlign=top;html=1;outlineConnect=0;" vertex="1" parent="1">
          <mxGeometry x="120" y="220" width="30" height="60" as="geometry" />
        </mxCell>
        <mxCell id="I5ZRGwqgSK4CXEPLcoX2-45" value="Admin" style="shape=umlActor;verticalLabelPosition=bottom;verticalAlign=top;html=1;outlineConnect=0;" vertex="1" parent="1">
          <mxGeometry x="120" y="510" width="30" height="60" as="geometry" />
        </mxCell>
        <mxCell id="I5ZRGwqgSK4CXEPLcoX2-54" style="edgeStyle=orthogonalEdgeStyle;rounded=0;orthogonalLoop=1;jettySize=auto;html=1;exitX=1;exitY=0.5;exitDx=0;exitDy=0;" edge="1" parent="1" source="I5ZRGwqgSK4CXEPLcoX2-60" target="I5ZRGwqgSK4CXEPLcoX2-51">
          <mxGeometry relative="1" as="geometry">
            <Array as="points">
              <mxPoint x="360" y="230" />
              <mxPoint x="360" y="170" />
              <mxPoint x="540" y="170" />
              <mxPoint x="540" y="190" />
              <mxPoint x="610" y="190" />
            </Array>
          </mxGeometry>
        </mxCell>
        <mxCell id="I5ZRGwqgSK4CXEPLcoX2-57" value="extends" style="edgeLabel;html=1;align=center;verticalAlign=middle;resizable=0;points=[];" vertex="1" connectable="0" parent="I5ZRGwqgSK4CXEPLcoX2-54">
          <mxGeometry x="0.1545" y="1" relative="1" as="geometry">
            <mxPoint as="offset" />
          </mxGeometry>
        </mxCell>
        <mxCell id="I5ZRGwqgSK4CXEPLcoX2-46" value="Login" style="ellipse;whiteSpace=wrap;html=1;" vertex="1" parent="1">
          <mxGeometry x="280" y="220" width="120" height="80" as="geometry" />
        </mxCell>
        <mxCell id="I5ZRGwqgSK4CXEPLcoX2-48" style="edgeStyle=orthogonalEdgeStyle;rounded=0;orthogonalLoop=1;jettySize=auto;html=1;" edge="1" parent="1" source="I5ZRGwqgSK4CXEPLcoX2-47" target="I5ZRGwqgSK4CXEPLcoX2-46">
          <mxGeometry relative="1" as="geometry" />
        </mxCell>
        <mxCell id="I5ZRGwqgSK4CXEPLcoX2-56" value="include" style="edgeLabel;html=1;align=center;verticalAlign=middle;resizable=0;points=[];" vertex="1" connectable="0" parent="I5ZRGwqgSK4CXEPLcoX2-48">
          <mxGeometry x="-0.4349" y="-2" relative="1" as="geometry">
            <mxPoint y="1" as="offset" />
          </mxGeometry>
        </mxCell>
        <mxCell id="I5ZRGwqgSK4CXEPLcoX2-53" style="edgeStyle=orthogonalEdgeStyle;rounded=0;orthogonalLoop=1;jettySize=auto;html=1;" edge="1" parent="1" source="I5ZRGwqgSK4CXEPLcoX2-47" target="I5ZRGwqgSK4CXEPLcoX2-52">
          <mxGeometry relative="1" as="geometry" />
        </mxCell>
        <mxCell id="I5ZRGwqgSK4CXEPLcoX2-47" value="Admin Login" style="ellipse;whiteSpace=wrap;html=1;" vertex="1" parent="1">
          <mxGeometry x="250" y="510" width="120" height="80" as="geometry" />
        </mxCell>
        <mxCell id="I5ZRGwqgSK4CXEPLcoX2-50" style="edgeStyle=orthogonalEdgeStyle;rounded=0;orthogonalLoop=1;jettySize=auto;html=1;" edge="1" parent="1">
          <mxGeometry relative="1" as="geometry">
            <mxPoint x="150" y="539.97" as="sourcePoint" />
            <mxPoint x="280" y="549.97" as="targetPoint" />
            <Array as="points" />
          </mxGeometry>
        </mxCell>
        <mxCell id="I5ZRGwqgSK4CXEPLcoX2-51" value="Visualizza Account" style="ellipse;whiteSpace=wrap;html=1;" vertex="1" parent="1">
          <mxGeometry x="170" y="60" width="120" height="80" as="geometry" />
        </mxCell>
        <mxCell id="I5ZRGwqgSK4CXEPLcoX2-52" value="Visualizza Exchange e utenti" style="ellipse;whiteSpace=wrap;html=1;" vertex="1" parent="1">
          <mxGeometry x="525" y="490" width="120" height="80" as="geometry" />
        </mxCell>
        <mxCell id="I5ZRGwqgSK4CXEPLcoX2-61" style="edgeStyle=orthogonalEdgeStyle;rounded=0;orthogonalLoop=1;jettySize=auto;html=1;" edge="1" parent="1" source="I5ZRGwqgSK4CXEPLcoX2-60" target="I5ZRGwqgSK4CXEPLcoX2-46">
          <mxGeometry relative="1" as="geometry" />
        </mxCell>
        <mxCell id="I5ZRGwqgSK4CXEPLcoX2-69" style="edgeStyle=orthogonalEdgeStyle;rounded=0;orthogonalLoop=1;jettySize=auto;html=1;" edge="1" parent="1" source="I5ZRGwqgSK4CXEPLcoX2-62" target="I5ZRGwqgSK4CXEPLcoX2-46">
          <mxGeometry relative="1" as="geometry" />
        </mxCell>
        <mxCell id="I5ZRGwqgSK4CXEPLcoX2-62" value="Prelievo Fondi" style="ellipse;whiteSpace=wrap;html=1;" vertex="1" parent="1">
          <mxGeometry x="520" y="100" width="120" height="80" as="geometry" />
        </mxCell>
        <mxCell id="I5ZRGwqgSK4CXEPLcoX2-68" style="edgeStyle=orthogonalEdgeStyle;rounded=0;orthogonalLoop=1;jettySize=auto;html=1;entryX=1;entryY=1;entryDx=0;entryDy=0;" edge="1" parent="1" source="I5ZRGwqgSK4CXEPLcoX2-65" target="I5ZRGwqgSK4CXEPLcoX2-46">
          <mxGeometry relative="1" as="geometry" />
        </mxCell>
        <mxCell id="I5ZRGwqgSK4CXEPLcoX2-65" value="Immissione Fondi" style="ellipse;whiteSpace=wrap;html=1;" vertex="1" parent="1">
          <mxGeometry x="520" y="230" width="120" height="80" as="geometry" />
        </mxCell>
        <mxCell id="I5ZRGwqgSK4CXEPLcoX2-66" value="" style="edgeStyle=orthogonalEdgeStyle;rounded=0;orthogonalLoop=1;jettySize=auto;html=1;exitX=1;exitY=0.5;exitDx=0;exitDy=0;" edge="1" parent="1" source="I5ZRGwqgSK4CXEPLcoX2-46" target="I5ZRGwqgSK4CXEPLcoX2-60">
          <mxGeometry relative="1" as="geometry">
            <mxPoint x="400" y="260" as="sourcePoint" />
            <mxPoint x="610" y="170" as="targetPoint" />
          </mxGeometry>
        </mxCell>
        <mxCell id="I5ZRGwqgSK4CXEPLcoX2-60" value="Deposito fondi" style="ellipse;whiteSpace=wrap;html=1;" vertex="1" parent="1">
          <mxGeometry x="380" y="90" width="120" height="80" as="geometry" />
        </mxCell>
        <mxCell id="I5ZRGwqgSK4CXEPLcoX2-70" value="Cancellazione Ordine" style="ellipse;whiteSpace=wrap;html=1;" vertex="1" parent="1">
          <mxGeometry x="400" y="320" width="120" height="80" as="geometry" />
        </mxCell>
        <mxCell id="I5ZRGwqgSK4CXEPLcoX2-71" value="Logout" style="ellipse;whiteSpace=wrap;html=1;" vertex="1" parent="1">
          <mxGeometry x="570" y="333" width="120" height="80" as="geometry" />
        </mxCell>
      </root>
    </mxGraphModel>
  </diagram>
</mxfile>
